<?xml version="1.0" encoding="UTF-8"?>
<svg id="Layer_1" data-name="Layer 1" xmlns="http://www.w3.org/2000/svg" viewBox="0 0 433.8 91.14">
  <defs>
    <style>
      .cls-1 {
        fill: #4a6360;
      }
    </style>
  </defs>
  <path class="cls-1" d="M215.76,52.93c-.26.38-1.64,1.28-3.09,2.02l-2.61,1.33-.75-1.16c-1.25-1.93-2.01-2.59-6.6-5.64-11.87-7.9-21.81-11.78-32.69-12.77-6.54-.6-8.73.21-6.95,2.56,1.3,1.71,15.73,11.18,21.37,14.02,5.9,2.98,11.25,4.38,16.98,4.48,4,.07,3.98.09-1.19,1.55-6.79,1.91-12.68,3.15-12.68,2.67,0-.52-4.09-2.86-11.44-6.56-6.98-3.51-18.66-7.56-25.07-8.7-10.49-1.86-17.01-1.29-14.66,1.29.86.95,13.5,7.77,19.77,10.68,6.04,2.8,12.09,4.49,17.49,4.9,2.23.17,4.12.37,4.17.45.39.71-21.33,2.17-25.72,1.73-2.41-.24-4.89-1.95-13.28-9.14-9.07-7.78-15.01-11.25-25.71-15-7.29-2.56-9.65-2.97-11.22-1.96-1.22.78.23,2.61,6.28,7.91,8.75,7.66,17.99,13.7,24.95,16.31,2.1.79,1.94.8-2.78.19-7.83-1.01-12.91-2.12-13.07-2.86-.11-.49-.46-.57-1.55-.39-1.86.32-1.63.5-5.09-4.01-3.59-4.67-10.77-12.36-14.44-15.45-7.87-6.64-17.59-10.75-18.53-7.84-.38,1.19.24,2.06,5.95,8.31,4.79,5.23,9.45,9.47,13.99,12.7,1.93,1.37,3.93,2.8,4.43,3.18.51.37-3.6-.74-9.13-2.48-8.97-2.82-10.07-3.24-10.21-3.95-.08-.43-.31-.76-.5-.71-.19.04-1.27-1.2-2.38-2.73-11.84-16.4-16.72-21.03-25.27-24-4.54-1.58-6.67-1.8-8.68-.9l-1.46.65.71,1.29c1.99,3.63,13.41,15.01,18.84,18.78,1.52,1.05,2.85,2.05,2.92,2.19.15.29-15.56-5.53-26.21-9.71-3.37-1.32-6.07-2.58-6.01-2.79.07-.21-.11-.46-.38-.56-.28-.1-1.92-2.34-3.68-5.04C20.57,12.42,18.33,9.95,8.4,3.32,2.86-.37-.85-1.1.17,1.71c.46,1.28,6.2,11.12,8.08,13.86,3.44,5.02,6.75,8.76,10.97,12.41,4.13,3.58,5.91,4.41,18,8.41l11.35,3.76-3.08-.23c-9.77-.73-19.49.46-24.53,3.02-5.31,2.69-7.52,5.61-4.74,6.26,1.94.45,14.43.89,17.33.6,6.06-.59,11.81-2.84,15.77-6.16l2.34-1.96,3.9,1.35c2.14.74,7.58,2.78,12.08,4.51l8.18,3.15-5.1-.23c-8.59-.4-19.09,1.64-24.65,4.77-4.48,2.53-3.68,3.71,2.97,4.37,16.47,1.64,22.48,1.49,27.53-.67,2.45-1.05,4.8-3.1,5.29-4.62l.44-1.37,11.6,3.71c6.38,2.04,12.46,3.89,13.52,4.11,1.81.37,1.7.42-1.8.7-7.93.64-16.98,3.26-24.47,7.09-7.44,3.8-10.56,7.04-7.2,7.48.73.1,4.42-.05,8.18-.33,17.86-1.31,26.85-4.24,32.59-10.61,1.11-1.23,2.26-2.17,2.53-2.08,2.53.84,16.7,2.94,23.64,3.5,1.81.14,3.32.35,3.37.45.05.1-.89.41-2.05.67-3.55.79-10.03,3.14-14.12,5.1-12.61,6.06-18.5,15.18-8.87,13.74,3.58-.54,14.52-3.73,17.39-5.08,6.05-2.84,10.77-7,13.5-11.88l1.32-2.36,4.29-.05c6.67-.07,11.16-.37,17.55-1.16,3.24-.4,5.53-.56,5.1-.35-.43.21-2.8,1.19-5.23,2.17-2.43.98-4.83,2.06-5.3,2.37-.47.32-1.94,1.27-3.3,2.15-8.38,5.38-14.82,13.5-13.62,17.17.37,1.13.73,1.12,5.58-.28,7.13-2.05,10.89-3.49,15.5-5.93,8.14-4.31,11.51-7.96,13.95-15.13,1.3-3.8,1.63-4.43,2.43-4.62.51-.12,4.01-.98,7.71-1.91,5.82-1.46,6.65-1.56,5.83-.73-10.02,10.18-14.02,16.88-14.8,24.78-.17,1.78-.37,3.43-.44,3.7-.24.97,1.16,1.43,2.33.77.62-.35,3.14-2.14,5.6-3.97,7.71-5.74,11.17-10.09,13.34-16.73.99-3.04,1.19-4.65,1.33-10.69.01-.53,1.23-1.48,3.65-2.83,1.98-1.1,3.73-2.32,3.84-2.67.29-.9-.42-1.09-1-.26ZM9.39,5.6c5.35,3.74,9.89,8.08,13.25,12.7,2.69,3.7,8.06,12,7.83,12.12-.66.34-6.91-5.33-11.79-10.69C12.73,13.18,3.8,2.34,4.33,2.3c.17-.01,2.46,1.48,5.06,3.3ZM4.18,6.77C1,1.25.87.97,1.49,1.19c.19.07,1.85,2.04,3.68,4.39,8.79,11.28,18.24,21.42,23.11,24.81,3.1,2.16,3.7,3.02,1.69,2.39-8.82-2.72-17.26-11.24-25.79-26.02ZM48.47,24.65c-2.58-.68-2.62-.79-.34-.97,4.49-.34,12.99,4.01,18.48,9.47,2.52,2.5,10.65,12.87,10.49,13.36-.09.29-2.25-1.57-8-6.91-10.62-9.88-15.9-13.7-20.64-14.96ZM48.41,27.27c-2.19-2.59-1.51-2.67,2.83-.35,4.04,2.16,10.28,7.05,15.74,12.34,1.14,1.1,4.37,4.03,7.2,6.52,5.01,4.41,5.08,4.5,3.14,3.84-8.48-2.85-19.85-11.64-28.91-22.35ZM45.48,44.9c-5.26,2.86-10.5,3.91-18.86,3.76-2.83-.05-5.31-.15-5.52-.22-.2-.07,4.61-.84,10.72-1.72,6.11-.88,12.22-1.94,13.6-2.37l2.52-.78-2.46,1.34ZM45.25,43.08c-2.11.59-9.58,1.93-16.56,2.98l-12.72,1.9,1.43-1.36c.79-.75,2.75-1.98,4.38-2.74,4.85-2.27,14.8-3.47,22.36-2.69,1.71.18,3.56.29,4.15.26,2.06-.12.76.6-3.04,1.66ZM47.05,56.1c1.22-.69,4.02-1.75,6.25-2.38,2.2-.62,6.06-1.38,8.48-1.69,4.54-.57,13.69-.46,14.49.17.93.74-7.13,2.17-15.93,2.83-5.97.45-10.71,1.09-13.76,1.87l-1.74.44,2.21-1.25ZM80.57,53.77c-.66,3.34-7.48,5.77-16,5.69-3.18-.03-15.97-.98-16.73-1.24-.79-.27.18-.57,3.54-1.07,2.03-.3,6.05-.7,9-.89,6.04-.39,13.81-1.62,17.73-2.8l2.68-.81-.22,1.13ZM78.91,71.15c8.04-4.96,20.53-8.38,30.97-8.48,5.69-.06,1.93,1.39-13.15,5.04-9.64,2.34-14.66,3.79-19.18,5.54-4.63,1.79-4.41,1.45,1.36-2.1ZM113.07,65.1c-6.02,5.55-13.71,7.97-29.78,9.38-3.33.29-6.11.5-6.19.47-.51-.18,1.69-1.1,5.39-2.28,2.28-.72,7.64-2.15,11.94-3.18,9.91-2.37,15.73-4.01,18.42-5.19l2.06-.9-1.83,1.69ZM80.25,34.63q-1.02-.98,1.43-.29c1.34.38,3.7,1.37,5.21,2.17,6.12,3.28,16.31,12.6,21.36,19.54l1.56,2.14-1.35-.78c-2.48-1.43-24.49-19.21-28.21-22.79ZM107.35,58.6c-4.65-1.5-12.67-7.16-18.38-12.99-4.93-5.04-7.97-8.33-7.9-8.55.04-.11,1.15.73,2.46,1.86,6.25,5.37,21.66,17.71,23.66,18.95l2.27,1.41-2.11-.68ZM143.36,75.76c-4.95,4.11-13.11,7.38-23.13,9.29l-3.36.64,2.15-1.52c1.18-.83,4.83-2.96,8.06-4.7,7.52-4.06,22.29-11.19,22.12-10.68-.38,1.19-3.83,5.3-5.84,6.97ZM134.41,74.46c-7.18,3.66-14.35,7.62-15.88,8.77-1.55,1.16-2.89,2.14-3.02,2.2-.12.05-.04-.48.18-1.17.23-.7,1.51-2.41,2.87-3.82,4.87-5.05,19.37-11.47,28.45-12.59.27-.03-5.42,2.95-12.6,6.61ZM135.8,61.91l5.46,2.72-4.1-1.06c-5.38-1.39-10.79-4.01-17.02-8.25-4.6-3.13-13.01-9.85-12.59-10.06.11-.06,3.74,2.17,8.03,4.93,9.18,5.91,12.8,8.01,20.22,11.71ZM147.36,65.41l-2.26-.74c-2.57-.85-10.69-4.73-16.07-7.69-3.02-1.66-22.17-13.67-25.23-15.83l-.88-.62,1.13-.08c.62-.04,3.72.72,6.89,1.71,9.87,3.06,17.12,7.25,27.21,15.73,3.46,2.91,6.97,5.81,7.77,6.42l1.45,1.11ZM152.06,87.73c0-1.05,1.95-4.61,3.5-6.4,4.22-4.86,11.77-9.99,19.02-12.95,6.86-2.79,7.41-2.85,4.6-.48-4.14,3.49-18.39,13.94-21.72,15.92-.54.32-2,1.48-3.2,2.54-1.2,1.06-2.2,1.68-2.2,1.36ZM184.57,68.39c-2.56,6.59-6.12,10.18-14.17,14.28-4.13,2.11-15.47,6.15-16.38,5.83-.47-.16,1.64-2.03,4.22-3.73,5.86-3.88,17.52-12.41,20.67-15.12,7.52-6.48,7.71-6.52,5.66-1.26ZM180.78,62.24c-6.18,1.08-15.9-.87-24.69-4.94-5.22-2.42-12.42-6.16-13.2-6.85-1.08-.95,5,.7,20.19,5.49,20.09,6.34,19.23,6.03,17.69,6.3ZM182.93,60.95c-.35.06-7.84-2.25-16.62-5.13-8.78-2.88-16.93-5.46-18.08-5.74-1.16-.28-3.71-.86-5.69-1.3-1.97-.44-4.04-.96-4.59-1.16-2.09-.75,2.53-1.01,7.51-.41,6.19.74,12.94,2.31,18.18,4.24,6.63,2.44,20.53,9.29,19.29,9.5ZM168.4,38.95c-3.21-1.11-1.95-1.45,3.26-.87,6.23.69,16.65,4.31,23.36,8.12,6.24,3.54,11.82,7.49,11.1,7.87-.89.46-20.47-7.06-28.45-10.93-3.88-1.88-8.05-3.76-9.27-4.18ZM207.98,60c.5,7.12-2.53,14.53-8.26,20.19-2.65,2.62-9.81,8.26-10.76,8.48-.67.16-.49-.17,4.76-8.28,2.72-4.21,6.42-9.67,8.23-12.14,1.8-2.47,3.88-5.66,4.61-7.07,1.29-2.51,1.32-2.53,1.42-1.19ZM205.58,60.57c-.53,1.11-2.6,4.29-4.61,7.09-2.01,2.78-5.29,7.59-7.27,10.66-6.04,9.37-5.62,8.8-5.59,7.46.01-.66.8-3.37,1.73-6.01,1.44-4.07,2.07-5.3,4.12-8,3.06-4.04,8.89-10.41,10.97-12l1.62-1.23-.95,2.02ZM208.17,55.88c.35.46-5.36.85-8.65.58-8.65-.69-20.24-6.29-33.19-16.03l-2.57-1.93,1.71.46c.94.25,5.03,2.05,9.11,4,12.45,5.96,20.69,9.3,27.44,11.12,3.33.9,6.09,1.7,6.15,1.79Z"/>
  <path class="cls-1" d="M217.04,53.93c.11.35,1.86,1.57,3.84,2.67,2.42,1.35,3.64,2.3,3.65,2.83.14,6.04.33,7.65,1.33,10.69,2.16,6.64,5.63,10.99,13.34,16.73,2.46,1.83,4.97,3.62,5.6,3.97,1.18.67,2.58.21,2.33-.77-.07-.27-.26-1.92-.44-3.7-.77-7.9-4.77-14.6-14.8-24.78-.82-.83,0-.73,5.83.73,3.71.93,7.21,1.79,7.71,1.91.8.18,1.14.81,2.43,4.62,2.44,7.17,5.81,10.82,13.95,15.13,4.61,2.44,8.36,3.87,15.5,5.93,4.85,1.4,5.21,1.41,5.58.28,1.2-3.67-5.24-11.79-13.62-17.17-1.36-.87-2.82-1.83-3.3-2.15-.47-.32-2.86-1.39-5.3-2.37-2.43-.98-4.8-1.96-5.23-2.17-.43-.21,1.86-.05,5.1.35,6.39.79,10.88,1.08,17.55,1.16l4.29.05,1.32,2.36c2.72,4.88,7.45,9.03,13.5,11.88,2.87,1.35,13.81,4.54,17.39,5.08,9.63,1.44,3.74-7.68-8.87-13.74-4.08-1.96-10.57-4.3-14.12-5.1-1.16-.26-2.1-.57-2.05-.67.05-.1,1.56-.31,3.37-.45,6.94-.56,21.12-2.65,23.64-3.5.28-.09,1.43.85,2.53,2.08,5.74,6.37,14.73,9.3,32.59,10.61,3.76.28,7.45.42,8.18.33,3.36-.44.24-3.68-7.2-7.48-7.49-3.82-16.53-6.45-24.47-7.09-3.5-.28-3.61-.33-1.8-.7,1.06-.22,7.14-2.07,13.52-4.11l11.6-3.71.44,1.37c.49,1.52,2.84,3.57,5.29,4.62,5.05,2.16,11.06,2.31,27.53.67,6.65-.66,7.45-1.84,2.97-4.37-5.56-3.13-16.06-5.17-24.65-4.77l-5.1.23,8.18-3.15c4.49-1.73,9.93-3.76,12.08-4.51l3.9-1.35,2.34,1.96c3.96,3.32,9.71,5.57,15.77,6.16,2.9.28,15.39-.15,17.33-.6,2.78-.65.58-3.57-4.74-6.26-5.05-2.56-14.76-3.75-24.53-3.02l-3.08.23,11.35-3.76c12.09-4,13.87-4.83,18-8.41,4.22-3.65,7.53-7.4,10.97-12.41,1.88-2.74,7.62-12.58,8.08-13.86,1.02-2.81-2.69-2.09-8.23,1.61-9.93,6.63-12.17,9.1-22.19,24.45-1.76,2.7-3.4,4.95-3.68,5.04-.27.09-.45.35-.38.56.07.21-2.63,1.46-6.01,2.79-10.65,4.18-26.36,10-26.21,9.71.07-.14,1.4-1.14,2.92-2.19,5.43-3.76,16.85-15.15,18.84-18.78l.71-1.29-1.46-.65c-2.02-.9-4.14-.67-8.68.9-8.55,2.97-13.43,7.6-25.27,24-1.1,1.53-2.19,2.77-2.38,2.73-.19-.04-.42.28-.5.71-.14.71-1.23,1.13-10.21,3.95-5.53,1.73-9.64,2.85-9.13,2.48.51-.37,2.5-1.8,4.43-3.18,4.54-3.23,9.2-7.46,13.99-12.7,5.71-6.25,6.34-7.12,5.95-8.31-.94-2.91-10.66,1.2-18.53,7.84-3.66,3.09-10.85,10.78-14.44,15.45-3.46,4.51-3.23,4.33-5.09,4.01-1.1-.19-1.45-.1-1.55.39-.16.74-5.23,1.85-13.07,2.86-4.72.61-4.88.6-2.78-.19,6.96-2.6,16.2-8.64,24.95-16.31,6.06-5.31,7.51-7.13,6.28-7.91-1.58-1.01-3.94-.6-11.22,1.96-10.7,3.76-16.64,7.23-25.71,15.01-8.38,7.19-10.86,8.9-13.28,9.14-4.39.44-26.11-1.02-25.72-1.73.04-.08,1.94-.29,4.17-.45,5.4-.41,11.45-2.1,17.49-4.9,6.27-2.91,18.91-9.73,19.77-10.68,2.35-2.58-4.17-3.16-14.66-1.29-6.41,1.14-18.09,5.19-25.07,8.7-7.35,3.7-11.44,6.04-11.44,6.56,0,.48-5.89-.76-12.68-2.67-5.17-1.46-5.2-1.49-1.19-1.55,5.74-.09,11.08-1.5,16.98-4.48,5.64-2.84,20.07-12.31,21.37-14.02,1.78-2.35-.41-3.16-6.95-2.56-10.88.99-20.82,4.88-32.69,12.77-4.58,3.05-5.35,3.71-6.6,5.64l-.75,1.16-2.61-1.33c-1.45-.74-2.82-1.64-3.09-2.02-.58-.83-1.29-.65-1,.26ZM429.47,3.05c.53.04-8.4,10.88-14.36,17.43-4.88,5.36-11.13,11.03-11.79,10.69-.23-.12,5.14-8.42,7.83-12.12,3.37-4.62,7.9-8.96,13.25-12.7,2.61-1.82,4.89-3.31,5.06-3.3ZM403.83,33.53c-2.02.62-1.41-.23,1.69-2.39,4.88-3.4,14.32-13.54,23.11-24.81,1.83-2.35,3.48-4.32,3.68-4.39.63-.22.49.06-2.69,5.58-8.53,14.78-16.97,23.3-25.79,26.02ZM364.69,40.35c-5.74,5.34-7.9,7.21-8,6.91-.16-.5,7.98-10.86,10.49-13.36,5.49-5.46,13.99-9.82,18.48-9.47,2.28.17,2.25.28-.34.97-4.73,1.25-10.01,5.08-20.64,14.96ZM356.48,50.36c-1.94.65-1.87.56,3.14-3.84,2.82-2.49,6.06-5.41,7.2-6.52,5.46-5.28,11.7-10.17,15.74-12.34,4.34-2.32,5.02-2.24,2.83.35-9.06,10.71-20.43,19.5-28.91,22.35ZM385.86,44.3l2.52.78c1.39.43,7.5,1.5,13.6,2.37,6.11.88,10.92,1.65,10.72,1.72-.2.07-2.69.17-5.52.22-8.37.15-13.61-.89-18.86-3.76l-2.46-1.34ZM385.51,42.16c.58.03,2.43-.08,4.15-.26,7.56-.78,17.5.42,22.36,2.69,1.63.76,3.59,1.99,4.38,2.74l1.43,1.36-12.72-1.9c-6.98-1.04-14.45-2.39-16.56-2.98-3.8-1.07-5.1-1.78-3.04-1.66ZM388.97,58.09l-1.74-.44c-3.05-.78-7.79-1.42-13.77-1.87-8.8-.66-16.86-2.09-15.93-2.83.8-.63,9.95-.73,14.49-.16,2.43.3,6.28,1.07,8.48,1.69,2.23.62,5.02,1.69,6.25,2.38l2.21,1.25ZM353.01,53.38l2.68.81c3.92,1.18,11.7,2.41,17.73,2.8,2.95.19,6.97.59,9,.89,3.35.5,4.33.79,3.54,1.07-.76.26-13.55,1.21-16.73,1.24-8.52.08-15.34-2.34-16-5.69l-.22-1.13ZM356.25,73.99c-4.52-1.75-9.53-3.2-19.18-5.54-15.07-3.65-18.83-5.1-13.15-5.04,10.43.1,22.93,3.52,30.97,8.48,5.76,3.55,5.98,3.89,1.36,2.1ZM318.9,64.15l2.06.9c2.68,1.18,8.5,2.82,18.42,5.19,4.3,1.03,9.66,2.46,11.94,3.18,3.7,1.17,5.9,2.1,5.39,2.28-.09.03-2.86-.18-6.19-.47-16.07-1.41-23.76-3.83-29.78-9.38l-1.83-1.69ZM325.34,58.16l-1.35.78,1.56-2.14c5.05-6.94,15.24-16.26,21.36-19.54,1.51-.81,3.87-1.79,5.21-2.17q2.45-.69,1.43.29c-3.72,3.58-25.73,21.35-28.21,22.79ZM324.34,60.02l2.27-1.41c2.01-1.25,17.41-13.58,23.66-18.95,1.32-1.13,2.43-1.97,2.46-1.86.07.22-2.97,3.51-7.9,8.55-5.71,5.83-13.73,11.5-18.38,12.99l-2.11.68ZM284.6,69.52c-.16-.51,14.6,6.62,22.12,10.68,3.23,1.74,6.88,3.87,8.06,4.7l2.15,1.51-3.36-.64c-10.02-1.9-18.19-5.18-23.13-9.29-2.02-1.67-5.46-5.78-5.84-6.97ZM286.8,68.59c9.08,1.12,23.58,7.54,28.45,12.59,1.36,1.41,2.64,3.12,2.87,3.82.22.68.3,1.22.18,1.17-.13-.06-1.47-1.03-3.02-2.2-1.53-1.15-8.7-5.11-15.88-8.77-7.18-3.66-12.87-6.64-12.6-6.61ZM318.22,50.95c4.29-2.76,7.92-4.99,8.03-4.93.41.21-7.99,6.93-12.59,10.06-6.23,4.24-11.64,6.86-17.02,8.25l-4.1,1.06,5.46-2.72c7.42-3.7,11.03-5.79,20.22-11.71ZM287.9,65.04c.8-.61,4.31-3.51,7.77-6.42,10.08-8.48,17.34-12.67,27.21-15.73,3.18-.98,6.27-1.75,6.89-1.71l1.13.08-.88.62c-3.06,2.15-22.21,14.16-25.23,15.83-5.39,2.96-13.51,6.85-16.07,7.69l-2.26.74,1.45-1.11ZM279.55,87.11c-1.2-1.06-2.66-2.21-3.2-2.54-3.33-1.98-17.58-12.43-21.72-15.92-2.81-2.37-2.25-2.31,4.6.48,7.25,2.95,14.8,8.09,19.02,12.95,1.55,1.79,3.5,5.34,3.5,6.4,0,.32-1-.3-2.2-1.36ZM254.89,70.39c3.15,2.71,14.81,11.25,20.67,15.12,2.57,1.7,4.68,3.57,4.22,3.73-.91.31-12.25-3.72-16.38-5.83-8.05-4.11-11.6-7.69-14.17-14.28-2.05-5.26-1.86-5.22,5.66,1.26ZM270.71,56.69c15.2-4.79,21.27-6.45,20.19-5.49-.78.69-7.98,4.42-13.2,6.85-8.78,4.08-18.5,6.03-24.69,4.94-1.54-.27-2.4.04,17.69-6.3ZM270.16,52.19c5.24-1.93,11.99-3.5,18.18-4.24,4.99-.59,9.6-.34,7.51.41-.55.2-2.62.72-4.59,1.16-1.97.44-4.53,1.02-5.69,1.3-1.15.28-9.3,2.87-18.08,5.74-8.78,2.88-16.27,5.19-16.62,5.13-1.24-.22,12.65-7.06,19.29-9.5ZM256.13,43.88c-7.99,3.87-27.56,11.39-28.45,10.93-.72-.37,4.86-4.33,11.1-7.87,6.71-3.81,17.13-7.43,23.36-8.12,5.21-.58,6.47-.24,3.26.87-1.22.42-5.38,2.3-9.27,4.18ZM227.24,61.92c.72,1.4,2.81,4.6,4.61,7.07,1.81,2.48,5.51,7.94,8.23,12.14,5.25,8.12,5.44,8.44,4.76,8.28-.95-.22-8.11-5.87-10.76-8.49-5.74-5.67-8.76-13.07-8.26-20.19.1-1.35.13-1.32,1.42,1.19ZM227.27,59.29l1.62,1.23c2.09,1.59,7.91,7.96,10.97,12,2.05,2.7,2.68,3.93,4.12,8,.93,2.63,1.71,5.35,1.73,6.01.03,1.34.45,1.9-5.59-7.46-1.98-3.07-5.26-7.88-7.27-10.66-2.02-2.79-4.09-5.97-4.61-7.09l-.95-2.02ZM231.79,54.83c6.75-1.82,14.99-5.16,27.44-11.12,4.07-1.95,8.17-3.75,9.11-4l1.71-.46-2.57,1.93c-12.96,9.74-24.54,15.33-33.19,16.03-3.28.26-9-.12-8.65-.58.07-.09,2.82-.89,6.15-1.79Z"/>
</svg>